<?xml version="1.0" encoding="UTF-8"?>
<svg width="400" height="300" viewBox="0 0 400 300" fill="none" xmlns="http://www.w3.org/2000/svg">
  <rect width="400" height="300" fill="#F3F4F6"/>
  <path d="M200 100C177.909 100 160 117.909 160 140C160 162.091 177.909 180 200 180C222.091 180 240 162.091 240 140C240 117.909 222.091 100 200 100ZM200 160C188.954 160 180 151.046 180 140C180 128.954 188.954 120 200 120C211.046 120 220 128.954 220 140C220 151.046 211.046 160 200 160Z" fill="#9CA3AF"/>
  <path d="M200 80C155.817 80 120 115.817 120 160C120 204.183 155.817 240 200 240C244.183 240 280 204.183 280 160C280 115.817 244.183 80 200 80ZM200 220C166.863 220 140 193.137 140 160C140 126.863 166.863 100 200 100C233.137 100 260 126.863 260 160C260 193.137 233.137 220 200 220Z" fill="#9CA3AF"/>
</svg> 